<?xml version="1.0" encoding="UTF-8" standalone="no"?>
<!-- Created with Inkscape (http://www.inkscape.org/) -->

<svg
        width="210mm"
        height="297mm"
        viewBox="0 0 210 297"
        version="1.1"
        id="svg5"
        inkscape:version="1.1.1 (3bf5ae0d25, 2021-09-20)"
        sodipodi:docname="logo.svg"
        inkscape:export-filename="/home/oli/PycharmProjects/rent_manager.py/logo.png"
        inkscape:export-xdpi="260.10001"
        inkscape:export-ydpi="260.10001"
        xmlns:inkscape="http://www.inkscape.org/namespaces/inkscape"
        xmlns:sodipodi="http://sodipodi.sourceforge.net/DTD/sodipodi-0.dtd"
        xmlns="http://www.w3.org/2000/svg"
        xmlns:svg="http://www.w3.org/2000/svg">
    <sodipodi:namedview
            id="namedview7"
            pagecolor="#ffffff"
            bordercolor="#666666"
            borderopacity="1.0"
            inkscape:pageshadow="2"
            inkscape:pageopacity="0.0"
            inkscape:pagecheckerboard="0"
            inkscape:document-units="mm"
            showgrid="false"
            showborder="false"
            inkscape:zoom="0.22627417"
            inkscape:cx="713.73591"
            inkscape:cy="123.74369"
            inkscape:window-width="1366"
            inkscape:window-height="731"
            inkscape:window-x="0"
            inkscape:window-y="0"
            inkscape:window-maximized="1"
            inkscape:current-layer="layer5"/>
    <defs
            id="defs2">
        <inkscape:path-effect
                effect="lattice2"
                gridpoint0="614.24522,163.28973"
                gridpoint1="764.24537,163.28973"
                gridpoint2="614.24522,197.24269"
                gridpoint3="764.24537,197.24269"
                gridpoint4="651.74526,163.28973"
                gridpoint5="726.74533,163.28973"
                gridpoint6="651.74526,197.24269"
                gridpoint7="726.74533,197.24269"
                gridpoint8x9="689.24529,163.28973"
                gridpoint10x11="689.24529,197.24269"
                gridpoint12="614.24522,171.77797"
                gridpoint13="764.24537,171.77797"
                gridpoint14="614.24522,188.75445"
                gridpoint15="764.24537,188.75445"
                gridpoint16="651.74526,171.77797"
                gridpoint17="726.74533,171.77797"
                gridpoint18="651.74526,188.75445"
                gridpoint19="726.74533,188.75445"
                gridpoint20x21="689.24529,171.77797"
                gridpoint22x23="689.24529,188.75445"
                gridpoint24x26="614.24522,180.26621"
                gridpoint25x27="764.24537,180.26621"
                gridpoint28x30="651.74526,180.26621"
                gridpoint29x31="726.74533,180.26621"
                gridpoint32x33x34x35="689.24529,180.26621"
                id="path-effect3028"
                is_visible="true"
                lpeversion="1"
                horizontal_mirror="false"
                vertical_mirror="false"
                perimetral="false"
                live_update="true"/>
        <inkscape:path-effect
                effect="skeletal"
                id="path-effect2376"
                is_visible="true"
                lpeversion="1"
                pattern="m 797.03246,-175.33607 v 31.5131 h 42.62583 v -31.5131 z m 69.55753,0 v 61.73221 h 42.62581 v -61.73221 z"
                copytype="single_stretched"
                prop_scale="1"
                scale_y_rel="false"
                spacing="0"
                normal_offset="0"
                tang_offset="2.4"
                prop_units="false"
                vertical_pattern="false"
                hide_knot="false"
                fuse_tolerance="0"/>
    </defs>
    <g
            inkscape:label="Layer 1"
            inkscape:groupmode="layer"
            id="layer1"
            style="display:inline"/>
    <g
            inkscape:groupmode="layer"
            id="layer7"
            inkscape:label="big"
            style="display:inline"/>
    <g
            inkscape:groupmode="layer"
            id="layer3"
            inkscape:label="house"
            style="display:inline"/>
    <g
            inkscape:groupmode="layer"
            id="layer4"
            inkscape:label="text 1"
            style="display:none;opacity:1">
        <path
                id="path15682-6"
                style="font-size:105.833px;line-height:1.25;font-family:Carlito;-inkscape-font-specification:Carlito;fill:#8d8007;fill-opacity:1;stroke-width:0.485958"
                d="M 100,0 83.223247,16.776753 67.244372,32.755628 V 106.90976 L 45.959363,77.638168 C 45.041931,76.389864 44.08914,75.652206 43.101141,75.425378 42.183706,75.141719 40.878302,75.000087 39.184582,75.000087 H 24.999918 v 25.000033 66.04764 a 100,100 0 0 0 16.936953,15.25437 v -76.09097 c 0,-2.43975 -0.211678,-5.0782 -0.635103,-7.914768 l 50.811876,70.038088 c 1.623166,2.32609 3.951552,3.4892 6.986138,3.4892 h 2.752808 c 3.03458,0 5.36299,-1.16311 6.98613,-3.4892 l 49.64761,-70.123363 c -0.1411,1.418537 -0.28257,2.837283 -0.42373,4.255563 -0.0706,1.36146 -0.10594,2.60961 -0.10594,3.74448 v 76.16331 a 100,100 0 0 0 17.0434,-15.32724 V 100.00012 75.000087 h -14.18518 c -1.69371,0 -3.03448,0.141632 -4.02249,0.425291 -0.98801,0.226828 -1.90542,0.93607 -2.75228,2.127515 L 135.45726,103.47121 117.20101,78.941453 c -0.80113,-0.991764 -1.63089,-1.826736 -2.48925,-2.505287 -0.85836,-0.730753 -1.77379,-1.382845 -2.74661,-1.95699 4.06291,-0.939509 7.69659,-2.296928 10.90115,-4.071594 3.20455,-1.826789 5.89372,-3.992906 8.06823,-6.498299 2.23176,-2.505392 3.91983,-5.324078 5.06431,-8.455818 1.20171,-3.131741 1.80297,-6.498114 1.80297,-10.099649 0,-3.143938 -0.39978,-6.058508 -1.19425,-8.746225 L 120.12331,20.123335 Z m -0.0021,15.845023 19.28151,19.143556 c 2.98024,2.958968 3.32845,6.41604 3.32845,11.383274 0,2.975161 -0.54363,5.715291 -1.63089,8.220684 -1.03005,2.45319 -2.60336,4.567052 -4.72064,6.341745 -2.1173,1.77464 -4.74988,3.157855 -7.8972,4.149619 -3.0901,0.939456 -6.69523,1.409197 -10.815346,1.409197 H 82.866166 V 35.179264 Z M 82.866668,76.905907 h 10.471706 c 2.002843,0 3.491018,0.260932 4.463812,0.782902 1.030049,0.469768 1.974029,1.278943 2.832394,2.427235 l 25.99015,35.673796 -21.70255,30.26947 c -0.84686,1.24804 -1.6587,2.55278 -2.43499,3.91449 -0.70572,1.36146 -1.41097,2.77992 -2.11667,4.25502 -0.705721,-1.41827 -1.446845,-2.80807 -2.223132,-4.16975 -0.705724,-1.36147 -1.517545,-2.69489 -2.434987,-3.99976 L 82.866668,128.39372 Z"/>
    </g>
    <g
            inkscape:groupmode="layer"
            id="layer6"
            inkscape:label="text 2"
            style="display:none">
        <path
                id="path80810"
                style="fill:#808000;fill-opacity:1;fill-rule:evenodd;stroke-width:0.953919"
                d="m 242.42578,339.14062 c -25.99601,0 -51.35802,1.7787 -76.08594,5.33399 v 242.29492 c 0.46299,0.46948 0.91457,0.94972 1.38086,1.41602 11.61004,11.61003 24.2219,22.18347 37.61328,31.66211 V 488.46484 h 23.77735 c 18.38741,0 31.38555,2.36894 38.99414,7.10938 7.60859,4.7404 14.10668,14.69591 19.49609,29.86523 l 53.88867,147.50196 c 12.08669,1.53812 24.26877,2.32617 36.46289,2.32617 2.44152,0 4.88237,-0.0329 7.32227,-0.0957 L 326.5957,526.15039 C 315.49985,498.65595 305.03869,483.1315 295.21094,479.57617 v -0.71094 c 34.55567,-11.85104 51.83203,-34.72317 51.83203,-68.61718 0,-23.93911 -8.55841,-41.71605 -25.67774,-53.33008 -17.11931,-11.85105 -43.4327,-17.77734 -78.93945,-17.77735 z m 147.41602,0 v 335.85547 c 12.43462,-0.51857 24.828,-1.83955 37.09179,-3.9375 V 407.40234 h 0.95118 l 41.8457,122.65821 h 38.04297 l 41.84961,-122.65821 h 0.95117 V 619.8457 c 13.39043,-9.47817 26.00202,-20.05085 37.61133,-31.66015 0.46694,-0.46695 0.91918,-0.94783 1.38281,-1.41797 V 339.14062 H 547.7207 l -56.58984,162.12305 h -0.95117 L 433.58984,339.14062 Z m -151.22071,24.88672 c 46.91964,0 70.37891,15.408 70.37891,46.22071 0,19.67274 -5.70626,33.53699 -17.11914,41.5957 -11.09586,7.82169 -30.43254,11.73242 -58.01367,11.73242 h -28.53321 v -96.70312 c 9.19372,-1.89619 20.2891,-2.84571 33.28711,-2.84571 z"
                transform="scale(0.26458333)"/>
    </g>
    <g
            inkscape:groupmode="layer"
            id="layer5"
            inkscape:label="house border"
            style="display:inline">
        <g
                id="g3194"
                transform="matrix(0.42927625,0,0,0.42927625,-127.17224,6.9188605)">
            <path
                    id="path3259-2"
                    style="display:inline;fill:#58af0a;fill-opacity:1;fill-rule:evenodd;stroke-width:0.264583"
                    sodipodi:type="inkscape:offset"
                    inkscape:radius="-16.455839"
                    inkscape:original="M 100 -16.484375 C 69.242514 -16.484375 39.382044 -4.1164189 17.632812 17.632812 C -4.1164189 39.382044 -16.484375 69.242514 -16.484375 100 C -16.484375 130.75749 -4.1164154 160.61795 17.632812 182.36719 C 39.382041 204.1164 69.242508 216.48437 100 216.48438 C 130.7575 216.48438 160.61796 204.11638 182.36719 182.36719 C 204.11638 160.61796 216.48437 130.7575 216.48438 100 C 216.48438 69.242508 204.1164 39.382041 182.36719 17.632812 C 160.61795 -4.1164154 130.75749 -16.484375 100 -16.484375 z "
                    transform="matrix(0.99992048,0,0,0.99992048,312.73107,0.3655634)"
                    d="m 100,-0.02929688 c -26.346092,0 -52.100788,10.66914788 -70.730469,29.29882788 C 10.639851,47.899212 -0.02929688,73.653908 -0.02929688,100 c 0,26.3461 10.66914588,52.10078 29.29882788,70.73047 18.629681,18.62966 44.384372,29.29882 70.730469,29.29883 26.34609,0 52.10078,-10.66918 70.73047,-29.29883 C 189.36012,152.10078 200.02929,126.3461 200.0293,100 200.0293,73.65391 189.36014,47.899214 170.73047,29.269531 152.10078,10.639849 126.3461,-0.02929688 100,-0.02929688 Z"/>
            <path
                    id="path81044-2"
                    style="display:inline;fill:#58af0a;fill-opacity:1;fill-rule:evenodd;stroke-width:0.264583"
                    sodipodi:type="inkscape:offset"
                    inkscape:radius="16.476439"
                    inkscape:original="M 100 -0.0078125 C 73.716752 -0.0078125 47.868249 10.698157 29.283203 29.283203 C 10.698157 47.868249 -0.0078125 73.716752 -0.0078125 100 C -0.0078125 126.28325 10.698158 152.13175 29.283203 170.7168 C 47.868248 189.30183 73.71675 200.00781 100 200.00781 C 126.28325 200.00781 152.13175 189.30182 170.7168 170.7168 C 189.30182 152.13175 200.00781 126.28325 200.00781 100 C 200.00781 73.71675 189.30183 47.868248 170.7168 29.283203 C 152.13175 10.698158 126.28325 -0.0078125 100 -0.0078125 z "
                    transform="matrix(0.99992048,0,0,0.99992048,312.73107,0.3655634)"
                    d="m 100,-16.484375 c -30.757486,0 -60.617956,12.3679556 -82.367188,34.117187 C -4.1164194,39.382044 -16.484375,69.242514 -16.484375,100 c 0,30.75749 12.3679591,60.61795 34.117187,82.36719 21.749229,21.74921 51.609696,34.11718 82.367188,34.11719 30.7575,0 60.61796,-12.368 82.36719,-34.11719 C 204.11638,160.61796 216.48437,130.7575 216.48438,100 216.48438,69.242508 204.1164,39.382041 182.36719,17.632812 160.61795,-4.1164159 130.75749,-16.484375 100,-16.484375 Z"/>
            <path
                    id="path3437-6"
                    style="display:inline;fill:#a2b89d;fill-opacity:1;fill-rule:evenodd;stroke-width:0.264583"
                    d="M 412.72322,0.3576134 312.72312,100.35771 h 25.00002 v 66.04764 a 100,100 0 0 0 75.00008,33.95245 100,100 0 0 0 75.00007,-33.95296 v -66.04713 h 25.00002 z"/>
            <path
                    id="path81560"
                    style="display:inline;fill:#808000;fill-opacity:1;fill-rule:evenodd;stroke-width:0.999999"
                    d="M 1559.8984,1.3515625 1181.9453,379.30469 h 94.4883 v 249.6289 a 377.95276,377.95276 0 0 0 283.4648,128.32422 377.95276,377.95276 0 0 0 283.4649,-128.32617 V 379.30469 h 94.4883 z m 0.01,136.0761675 c 62.4521,62.46174 124.9135,124.91489 187.3594,187.38282 -0.06,87.91731 -0.1224,175.83462 -0.1836,263.75195 -0.4202,2.07496 -3.2361,3.0429 -4.6074,4.67773 -50.2716,43.47995 -116.531,67.70064 -182.9415,67.55665 -68.3911,0.34737 -136.0941,-26.28086 -187.0742,-71.64063 l -0.023,-264.26367 c 62.0123,-62.02208 124.0245,-124.05363 186.0527,-186.05469 z"
                    transform="scale(0.26458333)"/>
        </g>
    </g>
</svg>
